<svg xmlns="http://www.w3.org/2000/svg" viewBox="0 0 1920 2880"><defs/><filter id="a"><feGaussianBlur stdDeviation="12"/></filter><rect width="100%" height="100%" fill="#424b65"/><g filter="url(#a)"><g fill-opacity=".5"><path fill="#fff" d="M2086.9 16.9L-174.4-17l888.8 3071.3z"/><path fill="#f8e7f7" d="M2086.9-174.4L-174.4 174.4l2013.8 2880z"/><path fill="#bfbdd2" d="M-151.9-39.4l1946.3 3093.8h-1890z"/><path fill="#b48f9b" d="M725.6 2896.9l-900-1743.8L2087 872z"/><path fill="#cbe8ff" d="M-174.4 1546.9L2087 16.9 5.6-174.4z"/><path fill="#4c7696" d="M2041.9 2323.1L1873 3054.4l-2047.5-405z"/><path fill="#f3b4b0" d="M39.4 1771.9L-174.4 748 2087 849.4z"/><path fill="#7fa5c3" d="M50.6 2660.6L2087 1783.1l-2261.3-67.5z"/><path fill="#d89fa4" d="M433.1 1614.4L2087 1693V489.4z"/><path fill="#dee0e9" d="M1861.9 253.1l225 607.5-2261.3-11.2z"/><path fill="#879ab6" d="M2041.9 2593.1l-236.3 461.3-1665-303.8z"/><path fill="#afabba" d="M-174.4 2143.1l1901.3 135L219.4 2582z"/><path fill="#475f75" d="M5.6 2615.6l1620-202.5-787.5 326.3z"/><path fill="#a8d3f8" d="M73.1-174.4l-247.5 708.8L2087 61.9z"/><path fill="#ae8aa0" d="M2086.9 1771.9l-2261.3-11.3 1170-483.7z"/><path fill="#889ab4" d="M-174.4 1783.1l2261.3-67.5-112.5 855z"/><path fill="#e8bcbc" d="M2086.9 1141.9V613L253 1063.1z"/><path fill="#4d6580" d="M995.6 2413.1l945 281.3-112.5-270z"/><path fill="#6b8aa9" d="M365.6 3054.4l-540-292.5 1845-281.3z"/><path fill="#ccdff2" d="M-140.6 309.4l2227.5-78.8-2261.3 843.8z"/><path fill="#6c90ad" d="M1344.4 1771.9l-1395-11.3 686.2 202.5z"/><path fill="#77a1c4" d="M995.6 2458.1l-866.2-78.7L230.6 2593z"/><path fill="#aeb0c5" d="M545.6 1951.9l1518.8-45-720 236.2z"/><path fill="#b4a3af" d="M2086.9 2390.6L590.6 2402l832.5-236.3z"/><path fill="#6b86a1" d="M1625.6 2199.4l-472.5-157.5-483.7 112.5z"/><path fill="#9fb2c9" d="M-174.4 1918.1l1023.8 22.5L95.6 2132z"/><path fill="#425567" d="M838.1 2536.9l-393.7-22.5 45 168.7z"/><path fill="#dfa9a3" d="M556.9 1445.6l438.7-427.5L2087 1119.4z"/><path fill="#b4c9e7" d="M1873.1 635.6L1322-5.6l641-112.5z"/><path fill="#454f57" d="M1164.4 2424.4l-236.3 90 528.8 11.2z"/><path fill="#718eaa" d="M703.1 2053.1l-517.5 135 922.5 22.5z"/><path fill="#c89ca5" d="M-174.4 1231.9l585 461.2 1192.5-292.5z"/><path fill="#7d9fcd" d="M1974.4 2413.1l112.5 135-540-56.2z"/><path fill="#8f9aba" d="M871.9 2840.6l933.7 213.8L2087 2773z"/><path fill="#d9a8ad" d="M2086.9 354.4L1648 466.9l438.8 45z"/><path fill="#b3a3ae" d="M590.6 2435.6l697.5-225-1462.5 45z"/><path fill="#88a7d4" d="M556.9 2761.9H703l146.3-202.5z"/><path fill="#ddcfd5" d="M388.1 646.9l1136.3 112.5-1698.8 281.2z"/><path fill="#d6dfed" d="M-174.4 748.1L1097 365.6l990 360z"/><path fill="#87accd" d="M984.4 2503.1l123.7-135-483.7 146.3z"/><path fill="#43515f" d="M-174.4 2716.9l11.3-135 393.7 33.7z"/><path fill="#718daa" d="M1265.6 2086.9l742.5 67.5-382.5 78.7z"/><path fill="#a4a9bf" d="M1580.6 1839.4l315 236.2L703.1 2087z"/><path fill="#6d7f96" d="M241.9 2998.1l877.5-225 45-315z"/><path fill="#ae99a5" d="M2086.9 2390.6l-855-78.7 855-157.5z"/><path fill="#90adcd" d="M253.1 2446.9L-174.4 2593h562.5z"/><path fill="#d9acb0" d="M-174.4 1456.9l1237.5-157.5-877.5-270z"/><path fill="#b993a4" d="M1119.4 1355.6l933.7-191.2 11.3 585z"/><path fill="#dbbfc8" d="M568.1 1209.4l798.8-450-1541.3 247.5z"/><path fill="#495e75" d="M883.1 2503.1L872 2604.4l315 45z"/></g></g></svg>