<svg xmlns="http://www.w3.org/2000/svg" viewBox="0 0 1920 2880"><defs/><filter id="prefix__a"><feGaussianBlur stdDeviation="12"/></filter><rect width="100%" height="100%" fill="#354d5d"/><g filter="url(#prefix__a)"><g fill-opacity=".5"><path fill="#d0e5ff" d="M2086.9 163.1L-174.4 995.6l708.8-1170z"/><path fill="#ed6478" d="M1771.9 2041.9L410.6 680.6 2087 467z"/><path fill="#8bc0eb" d="M-140.6 3054.4l2081.2-900-22.5 900z"/><path fill="#73fdff" d="M1389.4 804.4l675 551.2L1951.9 422z"/><path fill="#7a2d22" d="M1198.1 421.9L2087 2053l-2261.3 416.3z"/><path fill="#050c00" d="M16.9-50.6L-174.4 343 984.4-5.6z"/><path fill="#cdf4ff" d="M894.4 680.6l-663.8-405L883.1 84.4z"/><path fill="#a57265" d="M-174.4 1535.6l1440-202.5L28.1 1895.6z"/><path fill="#ff3c48" d="M1490.6 1738.1l-742.5-720L2087 1445.6z"/><path fill="#00323b" d="M995.6 939.4l472.5 348.7-22.5-798.7z"/><path fill="#2c1c17" d="M736.9 2604.4l-337.5-405 1687.5-225z"/><path fill="#78c1ff" d="M2086.9 680.6l-663.8 135 123.8-315z"/><path fill="#181527" d="M444.4 658.1l270 22.5-438.8-371.2z"/><path fill="#c4252a" d="M2086.9 1344.4l-461.3-247.5-540 1136.2z"/><path fill="#bae0ff" d="M1321.9 444.4l517.5-315L793 421.9z"/><path fill="#41251c" d="M-174.4 1805.6L849.4 1142 466.9 725.6z"/><path fill="#ec738f" d="M489.4 703.1L916.9 557l157.5 742.5z"/><path fill="#081721" d="M1400.6 534.4l-236.2 135-258.8-258.8z"/><path fill="#a2b8d4" d="M163.1 376.9l360 573.7L-174.4 737z"/><path fill="#134e76" d="M793.1 230.6l720-78.7L1007 365.6z"/><path fill="#b02440" d="M2086.9 399.4L1288-39.4l450 101.3z"/><path fill="#5c86a0" d="M433.1 2244.4L782 2795.6l-551.3 258.8z"/><path fill="#a7daff" d="M1153.1-163.1l315 258.7-708.7 112.5z"/><path fill="#312f20" d="M568.1 2098.1l-618.7 956.3 67.5-1260z"/><path fill="#935851" d="M-174.4 961.9l663.8-225-258.8 438.7z"/><path fill="#60a4da" d="M1558.1 466.9L1592 1153l-180-45z"/><path fill="#af908f" d="M1220.6 1558.1L692 1704.4l135 90z"/><path fill="#ca5b74" d="M624.4 669.4l731.2 191.2-236.2-326.2z"/><path fill="#4b1d20" d="M1996.9 1996.9l-90-450-708.8 517.5z"/><path fill="#8eb4fd" d="M2086.9 1344.4l-562.5-438.8L1906.9 467z"/><path fill="#002b2d" d="M455.6 2019.4l720-303.8 67.5 247.5z"/><path fill="#aad2ff" d="M1805.6 241.9l-292.5 112.5L1232-5.6z"/><path fill="#182828" d="M129.4 1096.9l708.7 315-1012.5-45z"/><path fill="#0e373b" d="M1310.6 1783.1l-292.5-427.5 405 315z"/><path fill="#1d4052" d="M1445.6 219.4l-270-101.3L1018.1 242z"/><path fill="#7fa4c3" d="M1209.4 2761.9l618.7 292.5L2087 2323z"/><path fill="#563e4e" d="M1299.4 826.9L961.9 489.4 1603 388z"/><path fill="#3b647f" d="M478.1 2728.1l675-45 641.3-483.7z"/><path fill="#bad8ff" d="M253.1 309.4L917 646.9 838 208z"/><path fill="#87363d" d="M894.4 2401.9l213.7-382.5 450 33.7z"/><path fill="#102c2d" d="M883.1 793.1l663.8 495-213.8-405z"/><path fill="#72b2dc" d="M1254.4 714.4l-78.8-67.5 225-56.3z"/><path fill="#000804" d="M1164.4 489.4l-247.5-67.5-22.5 67.5z"/><path fill="#9fc7f3" d="M253.1 208.1l776.3-157.5L613 568.1z"/><path fill="#ac919c" d="M95.6 1040.6l337.5 157.5-202.5-225z"/><path fill="#cc3034" d="M545.6 1040.6L827 1322l-169-304z"/><path fill="#1a3838" d="M1535.6 1085.6l123.8-33.7-303.8-225z"/><path fill="#243420" d="M646.9 129.4l517.5-303.8L-152 62z"/><path fill="#e26474" d="M703.1 905.6l450 168.8 382.5 675z"/><path fill="#4a3551" d="M489.4 714.4l360-112.5L568 568z"/></g></g></svg>