<svg xmlns="http://www.w3.org/2000/svg" viewBox="0 0 1920 2880"><defs/><filter id="a"><feGaussianBlur stdDeviation="12"/></filter><rect width="100%" height="100%" fill="#2b434c"/><g filter="url(#a)"><g fill-opacity=".5"><path fill="#fff" d="M2086.9 579.4l-1777.5 1755-483.8-2508.8z"/><path fill="#fffff7" d="M2086.9 1625.6l-2261.3-326.2L1592-174.4z"/><path fill="#781d00" d="M-174.4 1546.9l945 1507.5L2087 1423z"/><path fill="#ffd09a" d="M2086.9 725.6l-675 1091.3-1586.3-382.5z"/><path fill="#e9e3ef" d="M905.6-174.4L2087 1423.1l-2261.3-303.7z"/><path fill="#1b0e0b" d="M196.9 1636.9l1890 1158.7-2261.3 247.5z"/><path fill="#6278b6" d="M2053.1 646.9L-174.4 50.6l1957.5-225z"/><path fill="#ff8f3e" d="M613.1 1794.4L2087 1355.6-174.4 1412z"/><path fill="#35221d" d="M2075.6 1445.6l-191.2 1608.8-2036.3-945z"/><path fill="#e5dfdd" d="M-118.1 1445.6L-174.4 377 2087 894.4z"/><path fill="#bbc3ca" d="M1974.4 365.6L568 208.1l1519 1057.5z"/><path fill="#a9532d" d="M2008.1 1378.1L849.4 1715.6l540 213.8z"/><path fill="#4667aa" d="M1051.9-5.6L-152 421.9 62-174.4z"/><path fill="#404569" d="M1625.6 264.4l461.3-225-1215-213.8z"/><path fill="#ffc6a0" d="M1974.4 1378.1l-1226.3 90 1226.3-438.7z"/><path fill="#ff9359" d="M-163.1 1175.6l1563.7 472.5L62 1659.4z"/><path fill="#262424" d="M624.4 3054.4l-798.8-1068.8 2261.3 90z"/><path fill="#8aa7d5" d="M1378.1 73.1l-1417.5 585-135-405z"/><path fill="#85442b" d="M196.9 1850.6l888.7 168.8-1260-675z"/><path fill="#ffcab2" d="M-50.6 1445.6l1192.5 11.3-1305-483.8z"/><path fill="#3c2a23" d="M838.1 1636.9L680.6 2053l326.3 180z"/><path fill="#e2e8ee" d="M545.6 793.1l1203.8 371.3-933.8 270z"/><path fill="#302523" d="M28.1 3054.4L2087 2525.6-39.4 1693.1z"/><path fill="#6c7ea5" d="M2086.9 331.9L905.6-62 2087 725.6z"/><path fill="#04151c" d="M1141.9 1783.1l-112.5 135 33.7-258.7z"/><path fill="#5e3c2e" d="M1310.6 2019.4L2087 1558 365.6 1985.6z"/><path fill="#2f211d" d="M2030.6 1513.1l-1125 1417.5 1181.3-56.2z"/><path fill="#ffad7b" d="M1951.9 1209.4l135 191.2-708.8-45z"/><path fill="#e97a40" d="M1074.4 1524.4l90 292.5 562.5-405z"/><path fill="#bcccd8" d="M-174.4 950.6L1412 242 287 377z"/><path fill="#d86c37" d="M95.6 1468.1l686.3 225-22.5 225z"/><path fill="#536894" d="M1344.4 16.9L253-174.4-174.4 152z"/><path fill="#ff9f58" d="M129.4 1434.4h1440l-900 270z"/><path fill="#e6d7d1" d="M1344.4 1276.9l-191.3-765 933.8 618.7z"/><path fill="#4a5371" d="M2086.9-106.9l-56.3 472.5-1012.5-540z"/><path fill="#262826" d="M950.6 1659.4L894.4 2098l258.7 292.5z"/><path fill="#081013" d="M770.6 1738.1l90-45-56.2 202.5z"/><path fill="#a1b0c4" d="M894.4 163.1l1192.5 720L1479.4 242z"/><path fill="#7085b1" d="M-129.4 343.1l1440-258.7-776.2-67.5z"/><path fill="#dedad8" d="M759.4 399.4l-33.8 922.5-900-213.8z"/><path fill="#fc893e" d="M1029.4 1828.1l-112.5-315L1063 1592z"/><path fill="#56362b" d="M669.4 1963.1l-315 168.8-528.8-641.3z"/><path fill="#fec8a5" d="M421.9 1321.9l933.7 56.2-517.5 135z"/><path fill="#9b5537" d="M1254.4 1648.1l-101.3 270 686.3-472.5z"/><path fill="#ff9e6e" d="M478.1 1468.1l-652.5-22.5v-191.2z"/><path fill="#c66834" d="M871.9 1839.4l45 112.5-22.5-236.3z"/><path fill="#5d6d92" d="M1963.1 455.6L950.6-28l877.5 157.5z"/><path fill="#4e332b" d="M1153.1 2064.4l776.3-191.3 157.5-585z"/><path fill="#2d2624" d="M84.4 3054.4L2086.9 2773l-2205-967.5z"/><path fill="#bfc6cd" d="M691.9 264.4l1305 607.5-596.3-506.3z"/></g></g></svg>