<svg width="61" height="41" viewBox="0 0 61 41" fill="none" xmlns="http://www.w3.org/2000/svg">
<path fill-rule="evenodd" clip-rule="evenodd" d="M39 2H22C14.8203 2 9 7.8203 9 15V26C9 33.1797 14.8203 39 22 39H39C46.1797 39 52 33.1797 52 26V15C52 7.8203 46.1797 2 39 2ZM22 0C13.7157 0 7 6.71573 7 15V26C7 34.2843 13.7157 41 22 41H39C47.2843 41 54 34.2843 54 26V15C54 6.71573 47.2843 0 39 0H22Z" fill="#808080"/>
<path fill-rule="evenodd" clip-rule="evenodd" d="M37 9H24C18.4772 9 14 13.4772 14 19V23C14 28.5228 18.4772 33 24 33H37C42.5228 33 47 28.5228 47 23V19C47 13.4772 42.5228 9 37 9ZM24 7C17.3726 7 12 12.3726 12 19V23C12 29.6274 17.3726 35 24 35H37C43.6274 35 49 29.6274 49 23V19C49 12.3726 43.6274 7 37 7H24Z" fill="#808080"/>
<circle cx="22" cy="19" r="3" fill="#808080"/>
<circle cx="39" cy="19" r="3" fill="#808080"/>
<path d="M25 26V24H36V26C36 27.5 35 30 30.5 30C26.5 30 25 27.3333 25 26Z" fill="#808080"/>
<path fill-rule="evenodd" clip-rule="evenodd" d="M4.05025 27.9497C4.87971 28.7792 5.89589 29.379 7 29.7082L7 16.2918C5.89589 16.621 4.87971 17.2208 4.05025 18.0503C2.7375 19.363 2 21.1435 2 23C2 24.8565 2.7375 26.637 4.05025 27.9497ZM7 14.225C7.65106 14.0766 8.32158 14 9 14L9 32C8.32158 32 7.65106 31.9234 7 31.775C5.36037 31.4013 3.84415 30.5721 2.63604 29.364C0.948211 27.6761 -4.97739e-07 25.3869 -3.93403e-07 23C-2.89066e-07 20.6131 0.948211 18.3239 2.63604 16.636C3.84415 15.4279 5.36036 14.5987 7 14.225Z" fill="#808080"/>
<path fill-rule="evenodd" clip-rule="evenodd" d="M56.9497 18.0503C56.1203 17.2208 55.1041 16.621 54 16.2918L54 29.7082C55.1041 29.379 56.1203 28.7792 56.9497 27.9497C58.2625 26.637 59 24.8565 59 23C59 21.1435 58.2625 19.363 56.9497 18.0503ZM54 31.775C53.3489 31.9234 52.6784 32 52 32L52 14C52.6784 14 53.3489 14.0766 54 14.225C55.6396 14.5987 57.1558 15.4279 58.364 16.636C60.0518 18.3239 61 20.6131 61 23C61 25.3869 60.0518 27.6761 58.364 29.364C57.1558 30.5721 55.6396 31.4013 54 31.775Z" fill="#808080"/>
</svg>
